# xmcd CD database file
#
# Track frame offsets:
#	150
#	27819
#	56310
#	82250
#	123135
#	140512
#	161525
#	184560
#	204612
#	223012
#	236235
#
# Disc length: 3318 seconds
#
# Revision: 1
# Processed by: cddbd v1.4PL0 Copyright (c) Steve Scherf et al.
# Submitted via: CDex 1.51
#
DISCID=970cf40b
DTITLE=Steve Schuffert Band - Blue
DYEAR=2002
DGENRE=Bluesrock
TTITLE0=Hold Somebody
TTITLE1=Fool For Your Stockings
TTITLE2=Pearls To The Swine
TTITLE3=My Baby Left The Other Day
TTITLE4=Better Off Gome
TTITLE5=Waltz For One (Instrumental)
TTITLE6=The Healer
TTITLE7=Hiway 51
TTITLE8=Voodoo Woman
TTITLE9=Somebody Call The Law
TTITLE10=A Past Life
EXTD=YEAR: 2002
EXTT0=
EXTT1=
EXTT2=
EXTT3=
EXTT4=
EXTT5=
EXTT6=
EXTT7=
EXTT8=
EXTT9=
EXTT10=
PLAYORDER=
